# xmcd CD database file
#
# Track frame offsets:
#	150
#	12577
#	27670
#	43170
#	56112
#	70377
#	83022
#	99607
#	111880
#	128337
#	141082
#	156175
#
# Disc length: 2298 seconds
#
# Revision: 0
# Processed by: cddbd v1.4PL0 Copyright (c) Steve Scherf et al.
# Submitted via: CDex 1.51
#
DISCID=a608f80c
DTITLE=EDGAR SAMPSON - SWING SOFTLY SWEET SAMPSON
DYEAR=1956
DGENRE=Jazz
TTITLE0=LULLABY IN RHYTHM
TTITLE1=HOOPDEE WHODEE
TTITLE2=IF DREAMS COME TRUE
TTITLE3=STOMPIN' AT THE SAVOY
TTITLE4=I'LL BE BACK FOR MORE
TTITLE5=HAPPY AND SATISFIED
TTITLE6=COOL AND GROOVY
TTITLE7=BLUE LOU
TTITLE8=THE BLUES MADE ME FEEL THIS WAY
TTITLE9=LIGHT AND SWEET
TTITLE10=THE SWEETNESS OF YOU
TTITLE11=DON"T BE THAT WAY
EXTD=YEAR: 1956
EXTT0=
EXTT1=
EXTT2=
EXTT3=
EXTT4=
EXTT5=
EXTT6=
EXTT7=
EXTT8=
EXTT9=
EXTT10=
EXTT11=
PLAYORDER=
